# xmcd CD database file
#
# Track frame offsets:
#	150
#	31580
#	55492
#	115549
#	128088
#	171044
#	184022
#
# Disc length: 2797 seconds
#
# Revision: 0
# Processed by: cddbd v1.5.1PL0 Copyright (c) Steve Scherf et al.
# Submitted via: CDex 1.51
#
DISCID=4f0aeb07
DTITLE=Various Artist - Blue Notes 2005-03
DYEAR=2005
DGENRE=Jazz
TTITLE0=Wynton Marsalis - Feeling of Jazz 
TTITLE1=Wynton Marsalis - Baby, I Love You 
TTITLE2=Wynton Marsalis - The Magic Hour
TTITLE3=Stefano di Battista - Salt Peanuts
TTITLE4=Stefano di Battista - Embraceable You
TTITLE5=Jason Moran - Gangsterism On The Rise
TTITLE6=Jason Moran - Jump Up
EXTD=YEAR: 2005
EXTT0=
EXTT1=
EXTT2=
EXTT3=
EXTT4=
EXTT5=
EXTT6=
PLAYORDER=
